HIERARCHY
ROOT Root
{
  OFFSET 0.0 0.0 0.0
  CHANNELS 6 Xposition Yposition Zposition Zrotation Yrotation Xrotation
  JOINT Hips
  {
    OFFSET 0.0 100.0 0.0
    CHANNELS 6 Xposition Yposition Zposition Zrotation Yrotation Xrotation
    JOINT Spine1
    {
      OFFSET 5.003913 -0.037094 -0.013727
      CHANNELS 3 Zrotation Yrotation Xrotation
      JOINT Spine2
      {
        OFFSET 7.125363 -1e-06 0.0
        CHANNELS 3 Zrotation Yrotation Xrotation
        JOINT Chest
        {
          OFFSET 7.594027 1e-06 0.0
          CHANNELS 3 Zrotation Yrotation Xrotation
          JOINT Neck1
          {
            OFFSET 26.313086 -0.460272 -0.181672
            CHANNELS 3 Zrotation Yrotation Xrotation
            JOINT Neck2
            {
              OFFSET 8.04591 0.0 0.0
              CHANNELS 3 Zrotation Yrotation Xrotation
              JOINT Head
              {
                OFFSET 6.432777 0.0 0.0
                CHANNELS 3 Zrotation Yrotation Xrotation
                JOINT HeadEnd
                {
                  OFFSET 16.169769 0.06451 0.00362
                  CHANNELS 3 Zrotation Yrotation Xrotation
                }
                JOINT Jaw
                {
                  OFFSET 0.108738 3.12938 0.002639
                  CHANNELS 3 Zrotation Yrotation Xrotation
                }
                JOINT LeftEye
                {
                  OFFSET 4.451729 8.166359 3.206392
                  CHANNELS 3 Zrotation Yrotation Xrotation
                }
                JOINT RightEye
                {
                  OFFSET 4.43689 8.135758 -3.222429
                  CHANNELS 3 Zrotation Yrotation Xrotation
                }
              }
            }
          }
          JOINT LeftShoulder
          {
            OFFSET 23.218927 5.195579 1.621656
            CHANNELS 3 Zrotation Yrotation Xrotation
            JOINT LeftArm
            {
              OFFSET 15.902122 2e-06 -2e-06
              CHANNELS 3 Zrotation Yrotation Xrotation
              JOINT LeftForeArm
              {
                OFFSET 28.739304 0.0 -1e-06
                CHANNELS 3 Zrotation Yrotation Xrotation
                JOINT LeftHand
                {
                  OFFSET 27.093979 -4e-06 0.0
                  CHANNELS 3 Zrotation Yrotation Xrotation
                  JOINT LeftHandThumb1
                  {
                    OFFSET 2.276787 3.380274 0.83384
                    CHANNELS 3 Zrotation Yrotation Xrotation
                    JOINT LeftHandThumb2
                    {
                      OFFSET 4.705307 -2e-06 -1e-06
                      CHANNELS 3 Zrotation Yrotation Xrotation
                      JOINT LeftHandThumb3
                      {
                        OFFSET 2.798515 0.0 3e-06
                        CHANNELS 3 Zrotation Yrotation Xrotation
                        JOINT LeftHandThumbEnd
                        {
                          OFFSET 3.180786 5e-06 -4e-06
                          CHANNELS 3 Zrotation Yrotation Xrotation
                        }
                      }
                    }
                  }
                  JOINT LeftHandIndex1
                  {
                    OFFSET 3.24778 2.352677 0.137192
                    CHANNELS 3 Zrotation Yrotation Xrotation
                    JOINT LeftHandIndex2
                    {
                      OFFSET 6.367104 1e-06 0.0
                      CHANNELS 3 Zrotation Yrotation Xrotation
                      JOINT LeftHandIndex3
                      {
                        OFFSET 3.662361 0.0 0.0
                        CHANNELS 3 Zrotation Yrotation Xrotation
                        JOINT LeftHandIndex4
                        {
                          OFFSET 2.329239 4e-06 -4e-06
                          CHANNELS 3 Zrotation Yrotation Xrotation
                          JOINT LeftHandIndexEnd
                          {
                            OFFSET 2.767822 0.0 0.0
                            CHANNELS 3 Zrotation Yrotation Xrotation
                          }
                        }
                      }
                    }
                  }
                  JOINT LeftHandMiddle1
                  {
                    OFFSET 3.163612 0.945023 -0.406112
                    CHANNELS 3 Zrotation Yrotation Xrotation
                    JOINT LeftHandMiddle2
                    {
                      OFFSET 6.276794 3e-06 0.0
                      CHANNELS 3 Zrotation Yrotation Xrotation
                      JOINT LeftHandMiddle3
                      {
                        OFFSET 4.356522 -1e-06 4e-06
                        CHANNELS 3 Zrotation Yrotation Xrotation
                        JOINT LeftHandMiddle4
                        {
                          OFFSET 2.996872 0.0 8e-06
                          CHANNELS 3 Zrotation Yrotation Xrotation
                          JOINT LeftHandMiddleEnd
                          {
                            OFFSET 2.323257 3e-06 -4e-06
                            CHANNELS 3 Zrotation Yrotation Xrotation
                          }
                        }
                      }
                    }
                  }
                  JOINT LeftHandRing1
                  {
                    OFFSET 2.882607 -0.309162 0.107445
                    CHANNELS 3 Zrotation Yrotation Xrotation
                    JOINT LeftHandRing2
                    {
                      OFFSET 6.033195 0.0 4e-06
                      CHANNELS 3 Zrotation Yrotation Xrotation
                      JOINT LeftHandRing3
                      {
                        OFFSET 4.350578 3e-06 0.0
                        CHANNELS 3 Zrotation Yrotation Xrotation
                        JOINT LeftHandRing4
                        {
                          OFFSET 2.651321 1e-06 -7e-06
                          CHANNELS 3 Zrotation Yrotation Xrotation
                          JOINT LeftHandRingEnd
                          {
                            OFFSET 1.937668 1e-06 -4e-06
                            CHANNELS 3 Zrotation Yrotation Xrotation
                          }
                        }
                      }
                    }
                  }
                  JOINT LeftHandPinky1
                  {
                    OFFSET 2.865311 -1.525436 0.575687
                    CHANNELS 3 Zrotation Yrotation Xrotation
                    JOINT LeftHandPinky2
                    {
                      OFFSET 5.549362 1e-06 -8e-06
                      CHANNELS 3 Zrotation Yrotation Xrotation
                      JOINT LeftHandPinky3
                      {
                        OFFSET 3.070969 0.0 -4e-06
                        CHANNELS 3 Zrotation Yrotation Xrotation
                        JOINT LeftHandPinky4
                        {
                          OFFSET 1.549675 1e-06 0.0
                          CHANNELS 3 Zrotation Yrotation Xrotation
                          JOINT LeftHandPinkyEnd
                          {
                            OFFSET 1.952118 0.0 0.0
                            CHANNELS 3 Zrotation Yrotation Xrotation
                          }
                        }
                      }
                    }
                  }
                }
              }
            }
          }
          JOINT RightShoulder
          {
            OFFSET 23.161718 5.296122 -1.380114
            CHANNELS 3 Zrotation Yrotation Xrotation
            JOINT RightArm
            {
              OFFSET -16.027195 -2e-06 1.1e-05
              CHANNELS 3 Zrotation Yrotation Xrotation
              JOINT RightForeArm
              {
                OFFSET -28.736641 4e-06 2e-06
                CHANNELS 3 Zrotation Yrotation Xrotation
                JOINT RightHand
                {
                  OFFSET -27.133617 6e-06 0.0
                  CHANNELS 3 Zrotation Yrotation Xrotation
                  JOINT RightHandThumb1
                  {
                    OFFSET -2.274328 -3.351035 -0.83067
                    CHANNELS 3 Zrotation Yrotation Xrotation
                    JOINT RightHandThumb2
                    {
                      OFFSET -4.703592 -3e-06 2e-06
                      CHANNELS 3 Zrotation Yrotation Xrotation
                      JOINT RightHandThumb3
                      {
                        OFFSET -2.794937 -4e-06 -3e-06
                        CHANNELS 3 Zrotation Yrotation Xrotation
                        JOINT RightHandThumbEnd
                        {
                          OFFSET -3.183853 4e-06 1e-06
                          CHANNELS 3 Zrotation Yrotation Xrotation
                        }
                      }
                    }
                  }
                  JOINT RightHandIndex1
                  {
                    OFFSET -3.253498 -2.33755 -0.127667
                    CHANNELS 3 Zrotation Yrotation Xrotation
                    JOINT RightHandIndex2
                    {
                      OFFSET -6.344433 0.0 0.0
                      CHANNELS 3 Zrotation Yrotation Xrotation
                      JOINT RightHandIndex3
                      {
                        OFFSET -3.654869 0.0 -8e-06
                        CHANNELS 3 Zrotation Yrotation Xrotation
                        JOINT RightHandIndex4
                        {
                          OFFSET -2.327587 -1e-06 0.0
                          CHANNELS 3 Zrotation Yrotation Xrotation
                          JOINT RightHandIndexEnd
                          {
                            OFFSET -2.770004 3e-06 8e-06
                            CHANNELS 3 Zrotation Yrotation Xrotation
                          }
                        }
                      }
                    }
                  }
                  JOINT RightHandMiddle1
                  {
                    OFFSET -3.168224 -0.944764 0.411762
                    CHANNELS 3 Zrotation Yrotation Xrotation
                    JOINT RightHandMiddle2
                    {
                      OFFSET -6.266689 -1e-06 -4e-06
                      CHANNELS 3 Zrotation Yrotation Xrotation
                      JOINT RightHandMiddle3
                      {
                        OFFSET -4.348904 0.0 0.0
                        CHANNELS 3 Zrotation Yrotation Xrotation
                        JOINT RightHandMiddle4
                        {
                          OFFSET -3.000237 2e-06 -4e-06
                          CHANNELS 3 Zrotation Yrotation Xrotation
                          JOINT RightHandMiddleEnd
                          {
                            OFFSET -2.32148 -4e-06 -4e-06
                            CHANNELS 3 Zrotation Yrotation Xrotation
                          }
                        }
                      }
                    }
                  }
                  JOINT RightHandRing1
                  {
                    OFFSET -2.885654 0.293261 -0.119232
                    CHANNELS 3 Zrotation Yrotation Xrotation
                    JOINT RightHandRing2
                    {
                      OFFSET -6.032833 -1e-06 -4e-06
                      CHANNELS 3 Zrotation Yrotation Xrotation
                      JOINT RightHandRing3
                      {
                        OFFSET -4.33881 0.0 -4e-06
                        CHANNELS 3 Zrotation Yrotation Xrotation
                        JOINT RightHandRing4
                        {
                          OFFSET -2.654903 -4e-06 -4e-06
                          CHANNELS 3 Zrotation Yrotation Xrotation
                          JOINT RightHandRingEnd
                          {
                            OFFSET -1.935123 0.0 4e-06
                            CHANNELS 3 Zrotation Yrotation Xrotation
                          }
                        }
                      }
                    }
                  }
                  JOINT RightHandPinky1
                  {
                    OFFSET -2.866241 1.503903 -0.60527
                    CHANNELS 3 Zrotation Yrotation Xrotation
                    JOINT RightHandPinky2
                    {
                      OFFSET -5.553177 -1e-06 0.0
                      CHANNELS 3 Zrotation Yrotation Xrotation
                      JOINT RightHandPinky3
                      {
                        OFFSET -3.062664 -1e-06 -4e-06
                        CHANNELS 3 Zrotation Yrotation Xrotation
                        JOINT RightHandPinky4
                        {
                          OFFSET -1.546532 2e-06 4e-06
                          CHANNELS 3 Zrotation Yrotation Xrotation
                          JOINT RightHandPinkyEnd
                          {
                            OFFSET -1.952339 0.0 -4e-06
                            CHANNELS 3 Zrotation Yrotation Xrotation
                          }
                        }
                      }
                    }
                  }
                }
              }
            }
          }
        }
      }
    }
    JOINT LeftLeg
    {
      OFFSET -8.443107 2.567604 10.043214
      CHANNELS 3 Zrotation Yrotation Xrotation
      JOINT LeftShin
      {
        OFFSET 43.229202 1e-06 -1e-06
        CHANNELS 3 Zrotation Yrotation Xrotation
        JOINT LeftFoot
        {
          OFFSET 42.298607 1e-06 1e-06
          CHANNELS 3 Zrotation Yrotation Xrotation
          JOINT LeftToeBase
          {
            OFFSET 14.165863 1e-06 0.0
            CHANNELS 3 Zrotation Yrotation Xrotation
            JOINT LeftToeEnd
            {
              OFFSET 6.714096 -0.234461 0.0
              CHANNELS 3 Zrotation Yrotation Xrotation
            }
          }
        }
      }
    }
    JOINT RightLeg
    {
      OFFSET -8.303924 2.592729 -10.047277
      CHANNELS 3 Zrotation Yrotation Xrotation
      JOINT RightShin
      {
        OFFSET -43.369686 0.0 0.0
        CHANNELS 3 Zrotation Yrotation Xrotation
        JOINT RightFoot
        {
          OFFSET -42.260784 4e-06 3e-06
          CHANNELS 3 Zrotation Yrotation Xrotation
          JOINT RightToeBase
          {
            OFFSET -14.222237 -2e-06 -2e-06
            CHANNELS 3 Zrotation Yrotation Xrotation
            JOINT RightToeEnd
            {
              OFFSET -6.660072 0.232574 -1e-06
              CHANNELS 3 Zrotation Yrotation Xrotation
            }
          }
        }
      }
    }
  }
}
MOTION
Frames: 4
Frame Time: 0.03333333333333333
0.0 0.0 0.0 0.0 -0.0 0.0 -11.668404 93.048592 306.354004 94.415138 1.331576 80.9132 -0.168733 -1.160497 0.787755 -11.132045 0.162097 3.961838 17.521576 -3.052499 0.824175 17.141851 -3.256667 2.311389 -2.563367 -0.495131 -1.500738 -41.374756 0.818075 -4.025814 6e-06 0.0 -0.0 0.041035 0.025654 0.00093 0.194024 -0.113154 -0.031957 0.147602 0.154237 0.022801 -126.458061 -60.53788 145.759033 0.859106 -58.32877 14.825521 11.629262 -0.102502 0.062555 -6.699208 0.007868 -3.399853 17.636637 -26.323057 52.411617 -19.466795 -14.395712 29.410671 2e-06 -8.774889 1.4e-05 16.061792 -18.016981 6.34131 -0.609776 -1.795661 -3.889353 -4.807117 -11.046909 -2.937858 -2.7e-05 -20.976263 3.1e-05 -5.020063 -25.033937 -4.03189 5e-06 1e-06 -2e-06 -10.634576 -5.687009 -3.565602 10.573322 -17.923105 -3.113917 -1.9e-05 -13.821374 1.9e-05 -0.501829 -31.182024 -4.027036 -11.370466 -59.595486 7.717431 -13.982769 -7.150248 -2.875048 13.772799 -8.401554 -3.218276 0.347666 -34.212009 0.77172 -0.963085 -17.733646 2.621073 -0.0 -1e-06 -2e-06 -17.346502 -20.095362 -4.201776 21.757675 -1.638365 3.866428 -6e-06 -6.338901 9e-06 -1.697623 -22.592119 -6.194067 -2e-06 -1e-06 -3e-06 39.079483 -77.730453 159.106995 55.434296 -46.09972 -12.440354 36.444027 -0.075499 0.307898 -0.979041 9.37298 10.816109 22.182119 -20.375965 49.933567 -16.702042 -16.743652 28.476807 -6e-05 -12.690679 2.7e-05 16.206633 -17.889559 2.683974 -0.105912 -1.513866 -4.275906 -5.039043 -5.612884 -2.953579 5e-05 -11.020588 -3.2e-05 -6.111245 -15.895445 -3.840534 3e-06 0.0 -1e-06 -10.283393 -5.680289 -4.34186 11.02839 -11.302476 -2.372687 -1.384199 -14.238656 -6.320191 -0.625272 -26.924423 -3.827673 -4.373896 -50.321453 -3.627128 -13.708561 -7.363476 -3.720956 18.141304 -14.052843 -3.242761 8.3e-05 -18.787369 -2.7e-05 -0.429685 -8.456104 2.555529 -0.0 -2e-06 0.0 -15.923545 -20.094524 -5.473635 30.419395 -7.190933 1.735841 3.3e-05 -8.162966 -6e-06 -1.861801 -22.861629 -6.167996 -2e-06 -3e-06 -2e-06 149.38916 3.740813 -7.170379 15.79511 0.016323 -0.023404 -62.87323 1.711407 -0.554152 -9.58935 1.65474 2.165041 -1.000001 0.0 0.0 27.653341 -5.477335 -9.955336 20.814756 -0.243985 0.469605 -70.41114 6.766607 2.705447 -33.808052 1.109897 1.363422 -1.000005 0.0 0.0 
0.0 0.0 0.0 0.0 -0.0 0.0 -11.994642 93.739494 312.861328 96.261147 1.887142 82.915886 0.082373 -1.971999 0.591236 -10.966074 -0.32922 3.560029 17.270452 -4.214932 0.335684 16.679657 -1.995176 2.297606 -2.548173 -0.70189 -2.124532 -41.834969 0.571335 -4.156516 5e-06 0.0 -0.0 0.053999 0.057533 0.052551 0.255118 -0.046845 0.04795 0.216582 0.148131 0.043349 -124.207977 -63.335148 143.080963 2.99626 -60.620846 14.943191 11.156434 -0.098481 0.054875 -7.018838 -0.970347 -2.103057 17.636618 -26.322458 52.410965 -19.466599 -14.395556 29.410276 -9e-06 -8.774806 -1.2e-05 16.120335 -18.022058 6.058262 -0.609774 -1.795647 -3.889314 -4.807069 -11.046725 -2.937859 5.3e-05 -20.97584 -4.4e-05 -5.019863 -25.033346 -4.031938 7e-06 -0.0 2e-06 -10.634513 -5.686939 -3.565583 10.573264 -17.922819 -3.113908 3.5e-05 -13.821093 -1.6e-05 -0.501679 -31.181229 -4.027035 -11.090292 -59.094585 7.071502 -13.982684 -7.150156 -2.875044 13.7727 -8.401444 -3.218235 0.347828 -34.211239 0.771588 -0.962978 -17.733227 2.621014 2e-06 -1e-06 1e-06 -17.346367 -20.095097 -4.201807 21.757513 -1.638392 3.866428 1.1e-05 -6.33877 -4e-06 -1.697529 -22.591557 -6.194027 0.0 -4e-06 -3e-06 41.799576 -76.741585 156.684143 54.445419 -49.555111 -13.798686 34.517197 0.036021 0.175812 0.246165 10.440592 9.392876 22.182089 -20.375824 49.933132 -16.701595 -16.74342 28.476318 5.3e-05 -12.690536 -2.3e-05 16.350208 -17.810194 2.594605 -0.105931 -1.513847 -4.275858 -5.039043 -5.612864 -2.953541 -4.1e-05 -11.020488 2.1e-05 -6.111343 -15.895322 -3.840449 0.0 0.0 2e-06 -10.283352 -5.680291 -4.341822 11.028196 -11.302328 -2.37258 -1.384333 -14.238542 -6.320084 -0.625565 -26.924114 -3.827592 -4.198571 -50.493294 -3.58908 -13.708501 -7.363488 -3.72092 18.141008 -14.052629 -3.242598 -7.3e-05 -18.787224 1.9e-05 -0.42974 -8.456037 2.555501 -0.0 1e-06 -3e-06 -15.923548 -20.094456 -5.473539 30.419041 -7.1907 1.735999 -2.8e-05 -8.162903 3e-06 -1.861984 -22.861444 -6.167938 -1e-06 -2e-06 0.0 150.557129 6.582929 -6.922732 21.717216 0.075365 -0.101212 -63.487755 2.368253 0.854848 -7.385596 1.576983 2.099688 -1.0 0.0 0.0 21.652302 -8.379396 -10.327717 36.010036 -0.477542 0.571098 -56.910091 6.089719 2.496728 -29.654861 0.865877 1.221661 -1.000001 0.0 -0.0 
0.0 0.0 0.0 0.0 -0.0 0.0 -12.317319 94.515869 318.66922 97.884735 2.822949 84.082443 0.8184 -2.809546 0.31604 -10.544185 -0.701271 3.512663 17.046936 -4.751534 -0.219686 16.540083 -1.823366 2.302388 -2.577422 -0.598334 -2.464682 -42.619453 0.28091 -4.33073 4e-06 0.0 -0.0 0.09219 0.071447 0.093579 0.257479 -0.031162 0.081794 0.250364 0.157079 0.094124 -122.403549 -65.509567 140.817825 7.3051 -62.226814 14.008493 12.30633 -0.291757 0.085849 -7.188673 -2.326464 -0.731685 17.636715 -26.322874 52.411606 -19.466871 -14.395717 29.410709 -4e-06 -8.77492 2e-06 16.005411 -18.294224 6.130083 -0.60978 -1.795667 -3.889356 -4.807125 -11.046894 -2.937891 3e-05 -20.976236 -3.5e-05 -5.019983 -25.033918 -4.031988 6e-06 3e-06 -2e-06 -10.634603 -5.687008 -3.565615 10.573375 -17.923088 -3.113958 1.6e-05 -13.821347 -1.3e-05 -0.501709 -31.181959 -4.02713 -11.238889 -59.415741 7.08748 -13.982811 -7.150243 -2.875064 13.772849 -8.401554 -3.218287 0.34778 -34.211929 0.771616 -0.963023 -17.733608 2.621052 -0.0 2e-06 -1e-06 -17.346539 -20.095345 -4.201828 21.757736 -1.638392 3.866454 5e-06 -6.338883 -5e-06 -1.697563 -22.59206 -6.194145 -1e-06 -9e-06 -0.0 43.675106 -76.409058 155.091309 54.864914 -52.051243 -14.834693 30.448069 0.107883 0.116249 -0.551197 10.086105 8.334745 22.182245 -20.375982 49.933418 -16.701777 -16.743563 28.47653 1.9e-05 -12.690655 -1.9e-05 16.532194 -17.635315 2.548146 -0.105925 -1.513853 -4.275887 -5.039068 -5.612885 -2.953561 -1e-05 -11.020557 1.6e-05 -6.11136 -15.895414 -3.840482 0.0 0.0 -2e-06 -10.283413 -5.680304 -4.341848 11.028314 -11.302415 -2.372609 -1.384308 -14.238624 -6.320125 -0.625497 -26.924322 -3.827591 -4.057947 -50.335293 -3.567497 -13.70858 -7.363503 -3.720946 18.141186 -14.052754 -3.242639 -2.5e-05 -18.78735 2.4e-05 -0.429725 -8.456101 2.555532 0.0 -1e-06 -1e-06 -15.923623 -20.094536 -5.473582 30.4193 -7.190816 1.735987 -1.1e-05 -8.16296 9e-06 -1.861938 -22.861618 -6.167962 -2e-06 -4e-06 -2e-06 153.975052 8.997766 -6.942327 24.508089 0.098683 -0.268232 -67.63533 3.139446 1.718801 -7.047485 1.560603 2.095125 -1.000003 -0.0 0.0 14.37893 -11.501946 -8.775924 50.349701 -0.554299 0.424133 -46.718365 7.628743 1.47903 -11.349106 0.764476 1.121655 -1.0 -0.0 -1e-06 
0.0 0.0 0.0 0.0 -0.0 0.0 -12.630677 95.66581 324.186035 99.132339 3.665293 84.247971 1.382249 -3.511306 0.172508 -10.282168 -1.032403 3.285418 17.070967 -4.895112 -0.587734 16.694464 -2.19811 2.460775 -2.554424 -0.542619 -2.408027 -43.266056 0.036622 -4.078033 5e-06 -0.0 0.0 0.126825 0.072532 0.090215 0.206531 -0.029159 0.063018 0.219985 0.156418 0.109837 -122.190666 -66.109901 140.244415 13.449226 -62.094631 10.896735 14.595477 -0.302856 0.0859 -6.564375 -2.285655 -0.360687 17.636639 -26.322842 52.411114 -19.46665 -14.395587 29.41036 -1e-06 -8.77482 -0.0 16.162144 -18.600634 6.149877 -0.609775 -1.795654 -3.889322 -4.807083 -11.046837 -2.937832 -9e-06 -20.97611 3.9e-05 -5.020008 -25.03371 -4.031832 6e-06 -0.0 1e-06 -10.634521 -5.686972 -3.565577 10.573257 -17.923006 -3.113875 -8e-06 -13.82127 2.3e-05 -0.501824 -31.181723 -4.026968 -11.59525 -59.974941 7.20487 -13.982692 -7.1502 -2.875031 13.772716 -8.401513 -3.21823 0.347691 -34.211742 0.771723 -0.96306 -17.733513 2.621062 0.0 0.0 -1e-06 -17.346403 -20.095238 -4.201745 21.757538 -1.638376 3.866422 0.0 -6.338852 9e-06 -1.697598 -22.591902 -6.193994 0.0 -3e-06 -3e-06 42.311535 -76.088432 156.80368 55.589012 -53.370892 -15.27827 25.26189 0.00061 -0.007199 -1.667936 9.759914 7.873608 22.182079 -20.375813 49.933216 -16.701927 -16.743546 28.476561 -3.9e-05 -12.690618 1.4e-05 16.591375 -17.48617 2.467331 -0.105912 -1.51386 -4.275879 -5.03903 -5.612873 -2.953557 3.5e-05 -11.020557 -2.2e-05 -6.111252 -15.895403 -3.840487 0.0 0.0 -1e-06 -10.283362 -5.680277 -4.34183 11.028332 -11.302441 -2.372661 -1.384223 -14.238625 -6.320137 -0.62533 -26.924362 -3.827636 -3.914421 -50.233288 -3.595077 -13.708516 -7.363466 -3.720927 18.141211 -14.052798 -3.242722 7.1e-05 -18.787331 -3.6e-05 -0.429681 -8.456088 2.5555 -1e-06 0.0 1e-06 -15.923504 -20.094473 -5.473586 30.419256 -7.19089 1.735875 2.7e-05 -8.162941 -1.5e-05 -1.861802 -22.86157 -6.167988 -1e-06 -2e-06 -1e-06 159.12114 10.913126 -6.556007 23.5488 0.067162 -0.273024 -70.801788 3.065394 2.00656 -6.857585 1.606902 2.084609 -0.999996 -0.0 -0.0 6.690213 -13.929823 -6.388117 61.506905 -0.404688 0.286323 -52.87302 6.862195 1.444851 -9.491252 0.744381 1.212797 -1.000003 -0.0 0.0 
